<svg xmlns="http://www.w3.org/2000/svg" width="486" height="434" viewBox="0 0 486 434">
  <path fill="#4D65FF" d="M330.83,16.08C347.3,16.08 362.61,24.91 370.87,39.31L459.81,194.2C468.07,208.57 468.07,226.27 459.81,240.6L370.91,395.65C362.61,410.06 347.35,418.89 330.87,418.89H153.18C136.62,418.89 121.36,410.02 113.06,395.61L24.2,240.68C15.94,226.31 15.94,208.61 24.2,194.29L113.06,39.31C121.36,24.91 136.62,16.08 153.1,16.08H330.83ZM319.22,46.24C292.78,46.24 271.27,67.84 271.27,94.4C271.27,106.1 275.45,116.84 282.37,125.2L240.97,199.12H156.68C156.6,199.12 156.53,199.13 156.45,199.13C149.7,181.75 132.07,169.33 111.45,169.33C85.01,169.33 63.5,189.74 63.5,214.82C63.5,239.91 85.01,260.32 111.45,260.32C133.63,260.32 152.35,245.94 157.79,226.49H240.98L283.13,301.76C283.24,301.96 283.37,302.15 283.51,302.35C275.92,310.97 271.27,322.54 271.27,335.25C271.27,361.81 291.58,383.42 316.55,383.42C341.52,383.42 361.84,361.81 361.84,335.25C361.84,308.69 341.52,287.08 316.55,287.08C313.01,287.08 309.57,287.52 306.26,288.34C306.21,288.25 306.17,288.16 306.12,288.07L263.97,212.81L304.58,140.27C309.2,141.76 314.11,142.57 319.22,142.57C345.66,142.57 367.16,120.97 367.16,94.4C367.16,67.84 345.66,46.24 319.22,46.24Z" />
</svg>
